<svg width="24" height="25" viewBox="0 0 24 25" fill="none" xmlns="http://www.w3.org/2000/svg">
<path d="M4.333 16.6591L16.57 4.42113C17.0534 3.95849 17.6988 3.70353 18.3679 3.71085C19.037 3.71816 19.6767 3.98716 20.1499 4.46025C20.6231 4.93334 20.8923 5.57291 20.8998 6.24201C20.9073 6.91111 20.6525 7.55655 20.19 8.04013L7.951 20.2781C7.6718 20.5574 7.31619 20.7477 6.929 20.8251L3 21.6111L3.786 17.6811C3.86345 17.2939 4.05378 16.9383 4.333 16.6591Z" stroke="black" stroke-width="2" stroke-linecap="round" stroke-linejoin="round"/>
<path d="M4.333 16.6591L16.57 4.42113C17.0534 3.95849 17.6988 3.70353 18.3679 3.71085C19.037 3.71816 19.6767 3.98716 20.1499 4.46025C20.6231 4.93334 20.8923 5.57291 20.8998 6.24201C20.9073 6.91111 20.6525 7.55655 20.19 8.04013L7.951 20.2781C7.6718 20.5574 7.31619 20.7477 6.929 20.8251L3 21.6111L3.786 17.6811C3.86345 17.2939 4.05378 16.9383 4.333 16.6591Z" stroke="black" stroke-width="2" stroke-linecap="round" stroke-linejoin="round"/>
<path d="M14.5 7.11108L17.5 10.1111" stroke="black" stroke-width="2"/>
</svg>
